<?xml version="1.0" encoding="UTF-8" standalone="no"?>
<!-- Created with Inkscape (http://www.inkscape.org/) -->
<svg xmlns:dc="http://purl.org/dc/elements/1.1/" xmlns:cc="http://web.resource.org/cc/" xmlns:rdf="http://www.w3.org/1999/02/22-rdf-syntax-ns#" xmlns:svg="http://www.w3.org/2000/svg" xmlns="http://www.w3.org/2000/svg" xmlns:sodipodi="http://sodipodi.sourceforge.net/DTD/sodipodi-0.dtd" xmlns:inkscape="http://www.inkscape.org/namespaces/inkscape" width="540" height="389.79999" id="svg2" sodipodi:version="0.32" inkscape:version="0.45.1" version="1.0" sodipodi:docbase="C:\Dokumente und Einstellungen\Uwe Pilz\Desktop" sodipodi:docname="GTZ-Logo.svg" inkscape:output_extension="org.inkscape.output.svg.inkscape">
  <defs id="defs4"/>
  <sodipodi:namedview id="base" pagecolor="#ffffff" bordercolor="#666666" borderopacity="1.0" inkscape:pageopacity="0.0" inkscape:pageshadow="2" inkscape:zoom="0.35" inkscape:cx="350" inkscape:cy="520" inkscape:document-units="px" inkscape:current-layer="layer1" inkscape:window-width="1280" inkscape:window-height="968" inkscape:window-x="-4" inkscape:window-y="26" width="540px" height="389.8px"/>
  <metadata id="metadata7">
    <rdf:RDF>
      <cc:Work rdf:about="">
        <dc:format>image/svg+xml</dc:format>
        <dc:type rdf:resource="http://purl.org/dc/dcmitype/StillImage"/>
      </cc:Work>
    </rdf:RDF>
  </metadata>
  <g inkscape:label="Ebene 1" inkscape:groupmode="layer" id="layer1" transform="translate(592.79896,-646.11211)">
    <path style="fill:#d71d24;fill-opacity:1" d="M -504.92272,1015.6733 C -523.03134,1013.7618 -540.78629,1005.9023 -556.74505,992.73352 C -561.46118,988.84186 -562.79328,987.14249 -562.79328,985.0177 C -562.79328,982.99902 -562.74371,982.93825 -550.4056,969.83044 C -540.48356,959.28943 -539.73135,958.70957 -537.21844,959.66498 C -536.54352,959.92158 -533.90076,961.44584 -531.34563,963.05221 C -521.32886,969.34964 -510.83001,973.8043 -503.15731,975.01251 C -496.56019,976.05136 -487.60522,974.77833 -481.53754,971.93907 C -470.76851,966.8999 -463.35898,956.20071 -459.10801,939.55133 C -457.77341,934.32419 -456.47874,925.78105 -456.18745,920.27937 L -455.92011,915.23003 L -457.32836,914.04506 C -459.65411,912.08808 -460.21981,912.28408 -466.82017,917.33373 C -474.48971,923.20137 -483.62298,925.68644 -497.60654,925.71041 C -520.25418,925.74922 -538.02752,918.77987 -552.71756,904.10008 C -562.30142,894.52291 -568.33584,883.44281 -571.11335,870.32265 C -572.73516,862.66172 -572.9301,855.85293 -572.73884,813.54875 C -572.56137,774.29744 -572.52741,772.93061 -571.60953,768.09721 C -568.00562,749.1197 -557.63653,733.58548 -541.32418,722.7259 C -528.27061,714.03579 -511.50812,709.69765 -493.88783,710.44935 C -480.97609,711.00018 -472.8882,713.56169 -465.67757,719.38382 C -464.10903,720.65031 -462.35508,721.81061 -461.77989,721.96226 C -459.02213,722.68937 -456.9214,720.16439 -456.92019,716.12114 C -456.91966,714.3503 -456.68644,713.57774 -455.86365,712.62118 L -454.80779,711.39368 L -435.91975,711.39368 L -417.03171,711.39368 L -415.9632,712.6359 L -414.89468,713.87812 L -415.04269,820.4784 C -415.20163,934.95607 -415.07855,928.41155 -417.3149,941.29727 C -420.42391,959.21111 -427.5693,976.13005 -436.99264,987.89048 C -450.83704,1005.1684 -471.62866,1015.1624 -495.20031,1015.8694 C -498.56903,1015.9704 -502.94411,1015.8822 -504.92272,1015.6733 z M -487.24769,887.45749 C -476.25088,885.962 -464.6076,878.09209 -459.9489,869.00572 C -457.31048,863.85972 -457.37054,865.03714 -457.36347,818.3218 C -457.35724,777.20438 -457.38898,775.50161 -458.22243,772.24285 C -459.76347,766.21748 -462.92341,761.6455 -468.7923,756.94981 C -472.96462,753.61154 -479.00763,750.45642 -483.1692,749.44348 C -487.16295,748.47139 -496.6378,748.11969 -501.13139,748.77674 C -508.61989,749.8717 -514.82236,753.03872 -521.03383,758.93901 C -524.96367,762.67196 -527.74682,766.41087 -529.49363,770.30398 C -532.02706,775.95019 -531.94989,774.43351 -531.94989,818.57994 L -531.94989,859.26697 L -530.75797,862.76693 C -528.51261,869.36023 -524.36615,874.91535 -517.78132,880.15206 C -512.62916,884.24942 -507.44365,886.54237 -501.30822,887.43624 C -497.54004,887.98522 -491.19876,887.9948 -487.24769,887.45749 z M -276.77298,925.06074 C -289.28401,923.85402 -300.94799,919.68095 -311.45244,912.65332 C -328.30608,901.378 -339.52403,885.26054 -344.04248,865.82939 C -346.45407,855.45862 -346.38944,857.02446 -346.64875,802.68268 L -346.88953,752.22332 L -348.11704,751.16765 L -349.34455,750.11198 L -364.44738,750.11198 L -379.55021,750.11198 L -380.82904,748.83315 L -382.10787,747.55432 L -382.08872,739.53638 C -382.07342,733.12686 -381.91983,731.09727 -381.32311,729.41889 C -380.70994,727.69425 -375.8267,722.01868 -353.97689,697.63557 C -330.31931,671.2351 -327.14074,667.85011 -325.23987,667.03238 C -323.32446,666.20839 -322.26322,666.11295 -315.01646,666.11295 C -310.56908,666.11295 -306.61162,666.23524 -306.2221,666.38471 C -304.3134,667.11715 -304.23378,668.04401 -304.23378,689.53086 L -304.23378,709.92976 L -302.95494,711.20858 L -301.67612,712.48742 L -283.24595,712.48742 C -263.86066,712.48742 -262.79306,712.58765 -262.06853,714.47574 C -261.5628,715.79366 -261.76109,746.93005 -262.2825,748.07443 C -262.54966,748.66077 -263.24798,749.35909 -263.83432,749.62624 C -264.56161,749.95762 -270.74397,750.11198 -283.28826,750.11198 L -301.67612,750.11198 L -302.96705,751.40291 L -304.25798,752.69385 L -304.1289,804.23043 L -303.99982,855.76701 L -303.01078,858.97763 C -301.05963,865.31144 -297.90286,870.23615 -292.64868,875.14297 C -288.50065,879.01677 -283.64034,881.46401 -272.34907,885.36412 C -266.94252,887.23159 -263.89646,888.52167 -263.0523,889.30152 L -261.79677,890.46141 L -261.79677,906.64348 C -261.79677,925.22653 -261.61293,924.35333 -265.68456,925.10969 C -268.35615,925.60597 -271.25271,925.59318 -276.77298,925.06074 z M -226.18483,924.92273 C -228.48827,923.91999 -228.7526,921.5393 -226.95503,917.98612 C -226.31999,916.73085 -206.60401,879.87298 -183.14175,836.07974 C -137.52952,750.94271 -138.98494,753.86402 -140.96377,751.41987 L -141.84554,750.33073 L -181.14952,750.11198 C -221.87504,749.88532 -221.91263,749.88352 -222.5895,748.11962 C -222.73812,747.73233 -222.85972,739.96468 -222.85972,730.85817 L -222.85972,714.3009 L -221.70213,713.39034 L -220.54454,712.47979 L -147.94633,712.59298 L -75.348111,712.70616 L -74.247461,713.98578 C -73.374309,715.00089 -73.197167,715.57589 -73.39054,716.7674 C -73.524588,717.59349 -93.157964,755.11253 -117.02024,800.14304 C -142.98975,849.15005 -160.49118,882.64356 -160.61784,883.57827 C -160.78434,884.80697 -160.59438,885.41314 -159.72673,886.42198 L -158.62401,887.70414 L -116.7672,887.92289 L -74.910397,888.14163 L -73.854678,889.36914 L -72.798959,890.59665 L -72.798959,906.72378 C -72.798959,915.5937 -72.921239,923.16961 -73.070731,923.55912 C -73.863909,925.62617 -70.823669,925.5486 -150.32321,925.53033 C -211.87139,925.51618 -225.06433,925.41051 -226.18483,924.92273 z " id="path2170"/>
  </g>
</svg>