<svg xmlns="http://www.w3.org/2000/svg" width="315.489" height="339.02" viewBox="0 0 83.473 89.699"><defs><clipPath id="b"><path d="M421.11 284h31.887v41H421.11z"/></clipPath><clipPath id="c"><path d="M557 272h37.824v53H557z"/></clipPath><clipPath id="a"><path d="M421.11 158.41h173.71V263H421.11z"/></clipPath><clipPath id="d"><path d="M557 170h37.824v23H557z"/></clipPath><clipPath id="e"><path d="M441 158.41h50V188h-50z"/></clipPath><clipPath id="f"><path d="M421.11 227h37.887v23H421.11z"/></clipPath><clipPath id="g"><path d="M525 158.41h50V188h-50z"/></clipPath><clipPath id="h"><path d="M421.11 170h37.887v23H421.11z"/></clipPath><clipPath id="i"><path d="M557 227h37.824v23H557z"/></clipPath><clipPath id="j"><path d="M421.11 158.41h173.71V263H421.11z"/></clipPath><clipPath id="k"><path d="M421.11 333h5.887v14h-5.887z"/></clipPath><clipPath id="l"><path d="M543 337h10v12.77h-10z"/></clipPath><clipPath id="m"><path d="M572 337h10v12.77h-10z"/></clipPath><clipPath id="n"><path d="M585 337h9.824v10H585z"/></clipPath></defs><g clip-path="url(#a)" transform="matrix(.48072 0 0 .86532 -202.471 -137.075)"><path fill="#fff" fill-rule="evenodd" d="M594.82 262.07H421.18V158.41h173.64z"/></g><g fill="#012169" clip-path="url(#b)" transform="translate(-137.463 -44.788) scale(.35278)"><path d="M421.18 284.48h8.324v24.07c0 2.691.317 4.656.953 5.898.989 2.196 3.145 3.293 6.465 3.293 3.3 0 5.45-1.097 6.438-3.293.636-1.242.953-3.207.953-5.898v-24.07h8.32v24.09c0 4.164-.644 7.41-1.937 9.73-2.407 4.254-6.997 6.38-13.773 6.38s-11.38-2.126-13.801-6.38c-1.293-2.32-1.942-5.566-1.942-9.73z"/></g><path fill="#012169" d="M25.039 55.567h2.841v5.697l5.342-5.697h3.733l-5.673 5.686 5.964 8.14h-3.714l-4.26-6.036-1.391 1.411v4.625h-2.842z"/><g fill="#cf142b"><path d="M47.279 62.857a3.83 3.83 0 0 1-.682.339c-.23.087-.544.167-.944.241l-.8.149c-.752.13-1.29.292-1.619.48-.554.322-.83.82-.83 1.493 0 .603.169 1.035.508 1.304.338.266.75.4 1.235.4a3.68 3.68 0 0 0 2.123-.666c.648-.445.984-1.255 1.009-2.43zm-2.151-1.641c.654-.081 1.123-.185 1.404-.309.506-.213.76-.547.76-.999 0-.551-.195-.932-.582-1.142-.389-.21-.958-.315-1.708-.315-.843 0-1.438.206-1.788.618-.251.304-.418.715-.502 1.233h-3.394c.074-1.175.405-2.143.992-2.9.935-1.184 2.537-1.777 4.81-1.777 1.478 0 2.793.292 3.94.876 1.149.585 1.723 1.687 1.723 3.308v6.17c0 .43.008.947.025 1.555.025.462.095.774.21.938.115.166.288.3.52.408v.518H47.71a3.99 3.99 0 0 1-.221-.764 9.878 9.878 0 0 1-.1-.815 7.251 7.251 0 0 1-1.688 1.345c-.76.436-1.622.653-2.58.653-1.226 0-2.237-.347-3.037-1.041-.798-.696-1.197-1.682-1.197-2.956 0-1.654.642-2.851 1.926-3.593.706-.402 1.74-.69 3.11-.862zm12.021-6.419h-3.566v-3.566h3.566zm-3.57 1.15h3.566v13.452H53.58z"/><g clip-path="url(#c)" transform="translate(-137.463 -44.788) scale(.35278)"><path d="M582.75 313.32c1.473-2.098 2.207-4.816 2.207-8.152 0-4.664-1.18-7.996-3.535-10.004-1.446-1.211-3.125-1.82-5.04-1.82-2.913 0-5.05 1.101-6.417 3.308-1.364 2.203-2.047 4.938-2.047 8.203 0 3.52.695 6.336 2.082 8.445 1.386 2.114 3.492 3.168 6.316 3.168 2.82 0 4.965-1.05 6.434-3.148m-2.45-27.164c1.797 1.016 3.258 2.418 4.376 4.215V272.18h10.109v51.496h-9.692v-5.285c-1.422 2.265-3.043 3.91-4.863 4.933-1.817 1.028-4.078 1.54-6.785 1.54-4.453 0-8.203-1.801-11.246-5.403-3.043-3.605-4.567-8.227-4.567-13.871 0-6.508 1.5-11.629 4.496-15.359 2.996-3.73 7.004-5.598 12.016-5.598 2.313 0 4.364.508 6.157 1.524"/></g></g><g fill="#012169"><g clip-path="url(#d)" transform="translate(-137.463 -44.788) scale(.35278)"><path fill-rule="evenodd" d="M594.82 192.96v-22.469l-37.629 22.469z"/></g><g clip-path="url(#e)" transform="translate(-137.463 -44.788) scale(.35278)"><path fill-rule="evenodd" d="M490.64 158.42h-49.184l49.184 29.363z"/></g><g clip-path="url(#f)" transform="translate(-137.463 -44.788) scale(.35278)"><path fill-rule="evenodd" d="M421.19 227.52v22.469l37.629-22.469z"/></g><g clip-path="url(#g)" transform="translate(-137.463 -44.788) scale(.35278)"><path fill-rule="evenodd" d="M525.37 158.42v29.363l49.184-29.363z"/></g><g clip-path="url(#h)" transform="translate(-137.463 -44.788) scale(.35278)"><path fill-rule="evenodd" d="M421.19 170.5v22.465h37.629z"/></g><g clip-path="url(#i)" transform="translate(-137.463 -44.788) scale(.35278)"><path fill-rule="evenodd" d="M594.82 249.98v-22.465h-37.629z"/></g><path fill-rule="evenodd" d="M18.269 47.667h17.359V37.304zm29.61 0h17.359L47.879 37.304z"/></g><g fill="#cf142b" clip-path="url(#j)" transform="translate(-137.463 -44.788) scale(.35278)"><path d="m421.19 262.07 57.875-34.551h11.578v1.145l-55.957 33.406zm104.18-70.254 55.957-33.406h13.496l-57.879 34.551H525.37zm25.074 35.703 44.379 26.492v8.059l-57.879-34.551zm-84.879-34.559-44.379-26.492v-8.059l57.879 34.551z"/><path d="M497.59 262.07v-41.465h-76.402v-20.73h76.402V158.41h20.836v41.465h76.402v20.73h-76.402v41.465z"/></g><g fill="#012169"><g clip-path="url(#k)" transform="translate(-137.463 -44.788) scale(.35278)"><path d="M421.11 338.62v-1.313h1.52v-1.343c0-.735.21-1.29.636-1.668.422-.375 1.043-.567 1.86-.567.136 0 .296.012.48.035.18.024.34.06.48.106v1.293a1.757 1.757 0 0 0-.421-.098 3.259 3.259 0 0 0-.418-.027c-.36 0-.64.07-.836.21-.2.142-.301.407-.301.802v1.257h1.746v1.313h-1.746v7.715h-1.48v-7.715z"/></g><path d="M13.629 74.207v.671h.012c.127-.258.283-.45.468-.572.184-.124.418-.18.702-.172v.554c-.21 0-.388.029-.536.085a.84.84 0 0 0-.357.254c-.09.11-.157.245-.197.404a2.153 2.153 0 0 0-.062.544v1.417h-.523v-3.185zm1.93 2.11c.051.15.121.276.212.376a.937.937 0 0 0 .701.31.94.94 0 0 0 .703-.31c.09-.1.162-.226.213-.376.05-.15.077-.321.077-.514s-.026-.365-.077-.514a1.108 1.108 0 0 0-.213-.379.917.917 0 0 0-.702-.314.938.938 0 0 0-.385.08.893.893 0 0 0-.317.234 1.085 1.085 0 0 0-.212.379 1.55 1.55 0 0 0-.077.514c0 .193.025.364.077.514m-.533-1.17a1.5 1.5 0 0 1 .295-.53 1.4 1.4 0 0 1 .487-.355c.193-.085.414-.128.665-.128.255 0 .478.043.668.128a1.41 1.41 0 0 1 .779.885c.066.203.099.422.099.656 0 .234-.033.452-.1.653-.064.201-.163.376-.294.527s-.292.266-.484.35c-.19.085-.413.126-.668.126-.251 0-.472-.04-.665-.125a1.373 1.373 0 0 1-.487-.351 1.505 1.505 0 0 1-.295-.527c-.067-.201-.1-.419-.1-.653s.034-.453.1-.656m4.023-.94v.469h.012c.239-.362.582-.542 1.028-.542.197 0 .377.04.536.123.16.082.273.221.34.419.107-.173.248-.306.421-.401a1.2 1.2 0 0 1 .576-.141c.16 0 .305.016.434.052.13.035.241.089.334.163.092.074.164.17.215.287s.077.257.077.421v2.335h-.524v-2.088c0-.1-.008-.192-.025-.277a.558.558 0 0 0-.092-.225.468.468 0 0 0-.187-.151.746.746 0 0 0-.312-.055c-.259 0-.461.074-.609.222-.149.147-.222.344-.222.59v1.984h-.523v-2.088c0-.103-.01-.197-.028-.284a.614.614 0 0 0-.096-.224.434.434 0 0 0-.18-.148.717.717 0 0 0-.294-.052.78.78 0 0 0-.392.092.871.871 0 0 0-.412.49.78.78 0 0 0-.047.23v1.984h-.522v-3.185zm7.83 0v.463h-.634v1.976c0 .062.006.112.015.149.01.036.03.065.058.085a.25.25 0 0 0 .121.04c.051.007.118.01.2.01h.24v.462h-.4a1.96 1.96 0 0 1-.348-.028.523.523 0 0 1-.234-.102.436.436 0 0 1-.133-.21 1.25 1.25 0 0 1-.042-.356V74.67h-.542v-.463h.542v-.953h.523v.953zm.98-1.21v1.681h.012a.711.711 0 0 1 .174-.25.975.975 0 0 1 .25-.166 1.43 1.43 0 0 1 .582-.125c.208 0 .382.027.523.085a.88.88 0 0 1 .339.24.907.907 0 0 1 .18.366c.036.142.053.3.053.472v2.094h-.524V75.24c0-.197-.057-.354-.171-.468-.116-.116-.274-.173-.475-.173-.16 0-.298.025-.415.075a.78.78 0 0 0-.294.208.916.916 0 0 0-.175.318 1.322 1.322 0 0 0-.059.397v1.798h-.522v-4.397zm4.93 2.15a.909.909 0 0 0-.474-.478.911.911 0 0 0-.361-.07.92.92 0 0 0-.367.07.842.842 0 0 0-.28.194.932.932 0 0 0-.184.287 1.08 1.08 0 0 0-.08.347h1.829a1.067 1.067 0 0 0-.083-.35m.125 2.044c-.238.18-.537.271-.898.271-.255 0-.476-.041-.663-.123a1.33 1.33 0 0 1-.471-.344 1.48 1.48 0 0 1-.286-.53 2.504 2.504 0 0 1-.108-.672c0-.242.037-.464.111-.665.073-.202.178-.375.31-.524a1.424 1.424 0 0 1 1.075-.467c.284 0 .52.058.706.175.187.117.336.266.449.446s.192.378.234.592c.044.213.06.417.053.61h-2.383c-.004.14.012.271.048.397a.884.884 0 0 0 .493.564c.127.057.278.085.45.085a.913.913 0 0 0 .546-.153.753.753 0 0 0 .28-.469h.516c-.069.357-.223.626-.462.807m4.905-.294c.26 0 .46-.069.606-.208.146-.14.22-.334.22-.58a.732.732 0 0 0-.08-.357.62.62 0 0 0-.214-.225.878.878 0 0 0-.305-.117 1.873 1.873 0 0 0-.357-.034h-1.336v1.521zm-.296-2.013c.333 0 .572-.058.718-.175.146-.117.219-.294.219-.528a.773.773 0 0 0-.075-.37.538.538 0 0 0-.202-.209c-.087-.05-.186-.081-.3-.095s-.232-.022-.36-.022h-1.17v1.399zm-.16-1.891.304.003a3.36 3.36 0 0 1 .623.065c.093.02.171.05.237.092.144.087.266.205.367.357a1 1 0 0 1 .151.56c0 .235-.057.436-.17.607a.996.996 0 0 1-.483.38v.012c.27.057.478.18.622.369.143.189.215.419.215.69a1.3 1.3 0 0 1-.086.467 1.172 1.172 0 0 1-.256.404 1.27 1.27 0 0 1-.419.284 1.438 1.438 0 0 1-.575.108H35.77v-4.398zm2.936 1.214v.671h.012c.129-.258.284-.45.469-.572.185-.124.419-.18.701-.172v.554c-.21 0-.387.029-.536.085a.849.849 0 0 0-.357.254c-.09.11-.155.245-.197.404a2.153 2.153 0 0 0-.062.544v1.417h-.522v-3.185zm2.06 3.18h-.524v-3.185h.524zm-.524-4.397h.524v.64h-.524zm2.594 1.217v.463h-.634v1.976a.55.55 0 0 0 .015.149c.01.036.03.065.06.085a.24.24 0 0 0 .12.04c.05.007.117.01.2.01h.24v.462h-.402c-.135 0-.25-.01-.347-.028a.516.516 0 0 1-.234-.102.436.436 0 0 1-.133-.21 1.202 1.202 0 0 1-.042-.356V74.67h-.542v-.463h.542v-.953h.523v.953zm1 3.18h-.524v-3.185h.524zm-.524-4.397h.524v.64h-.524zm1.664 3.687a.54.54 0 0 0 .193.19c.08.047.17.081.271.102.101.02.204.03.31.03.083 0 .17-.006.26-.017a.937.937 0 0 0 .249-.068.48.48 0 0 0 .189-.145.392.392 0 0 0 .073-.244.346.346 0 0 0-.155-.307 1.273 1.273 0 0 0-.384-.17 6.17 6.17 0 0 0-.502-.117 2.477 2.477 0 0 1-.501-.148 1.032 1.032 0 0 1-.386-.268c-.102-.114-.153-.274-.153-.48 0-.16.036-.297.107-.413a.88.88 0 0 1 .277-.28c.113-.071.24-.125.382-.16a1.76 1.76 0 0 1 .422-.052c.18 0 .347.016.499.046.151.03.286.084.403.16a.817.817 0 0 1 .28.308c.07.13.112.291.124.484h-.524a.524.524 0 0 0-.08-.256.54.54 0 0 0-.172-.163.772.772 0 0 0-.231-.09 1.137 1.137 0 0 0-.255-.027c-.079 0-.159.006-.239.018a.804.804 0 0 0-.217.065.425.425 0 0 0-.16.122.313.313 0 0 0-.062.202c0 .09.032.165.095.224.063.06.145.109.244.148.098.04.21.071.332.099.123.026.247.053.37.082.132.03.26.064.385.105.124.042.236.095.332.164a.798.798 0 0 1 .235.255c.059.102.09.23.09.382a.88.88 0 0 1-.122.48.93.93 0 0 1-.314.308c-.13.079-.275.132-.437.164-.163.03-.324.046-.484.046a2.22 2.22 0 0 1-.504-.056 1.26 1.26 0 0 1-.426-.181.917.917 0 0 1-.295-.333 1.128 1.128 0 0 1-.123-.503h.523a.586.586 0 0 0 .081.294m3.13-3.68v1.681h.012a.67.67 0 0 1 .173-.25 1 1 0 0 1 .25-.166 1.44 1.44 0 0 1 .582-.125c.208 0 .383.027.522.085a.88.88 0 0 1 .34.24.927.927 0 0 1 .181.366c.035.142.051.3.051.472v2.094h-.522V75.24c0-.197-.058-.354-.174-.468-.114-.116-.273-.173-.474-.173-.16 0-.299.025-.415.075a.78.78 0 0 0-.293.208.916.916 0 0 0-.175.318 1.302 1.302 0 0 0-.058.397v1.798h-.524v-4.397z"/><g clip-path="url(#l)" transform="translate(-137.463 -44.788) scale(.35278)"><path d="M550.49 340.51a3.448 3.448 0 0 0-.508-1.074 2.496 2.496 0 0 0-.87-.75c-.356-.184-.774-.278-1.25-.278-.5 0-.927.098-1.274.297a2.555 2.555 0 0 0-.856.778 3.2 3.2 0 0 0-.48 1.09 5.287 5.287 0 0 0 .008 2.523c.105.414.273.777.5 1.09.226.316.52.57.878.762.364.19.801.285 1.313.285.512 0 .937-.098 1.281-.297.344-.196.621-.457.828-.785a3.27 3.27 0 0 0 .453-1.118c.094-.418.141-.847.141-1.293a4.68 4.68 0 0 0-.164-1.23m-5.332-3.203v1.222h.031c.246-.5.63-.863 1.152-1.09a4.329 4.329 0 0 1 1.731-.34c.7 0 1.305.126 1.824.384.516.254.95.601 1.293 1.039.34.437.602.941.774 1.508.175.57.261 1.18.261 1.816 0 .64-.082 1.246-.25 1.816-.172.57-.425 1.067-.77 1.493s-.773.761-1.292 1.003c-.516.246-1.117.368-1.805.368a4.5 4.5 0 0 1-1.555-.297 3.1 3.1 0 0 1-.757-.426 2.381 2.381 0 0 1-.606-.672h-.031v4.64h-1.484v-12.464z"/></g><path d="M60.009 75.147a.909.909 0 0 0-.192-.287.9.9 0 0 0-.644-.262.92.92 0 0 0-.366.07.842.842 0 0 0-.28.195.934.934 0 0 0-.185.287 1.119 1.119 0 0 0-.08.347h1.83a1.067 1.067 0 0 0-.083-.35m.125 2.044c-.238.18-.537.271-.898.271-.255 0-.476-.041-.663-.123a1.33 1.33 0 0 1-.471-.344 1.503 1.503 0 0 1-.287-.53 2.562 2.562 0 0 1-.107-.672c0-.242.037-.464.111-.665.073-.202.178-.375.31-.524a1.43 1.43 0 0 1 1.075-.467c.284 0 .518.058.706.175.187.117.336.266.449.446s.192.378.234.592c.043.213.06.417.053.61h-2.384c-.003.14.012.271.05.397a.872.872 0 0 0 .493.564c.126.057.277.085.449.085a.906.906 0 0 0 .544-.153.748.748 0 0 0 .281-.469h.517c-.069.357-.223.626-.462.807m1.475-.874c.051.15.121.276.212.376a.937.937 0 0 0 .701.31.94.94 0 0 0 .703-.31c.09-.1.162-.226.213-.376.05-.15.077-.321.077-.514s-.026-.365-.077-.514a1.108 1.108 0 0 0-.213-.379.905.905 0 0 0-.702-.314.938.938 0 0 0-.385.08.893.893 0 0 0-.317.234c-.09.102-.161.229-.212.379a1.55 1.55 0 0 0-.077.514c0 .193.025.364.077.514m-.533-1.17a1.41 1.41 0 0 1 .783-.885c.192-.085.414-.128.664-.128.255 0 .478.043.668.128a1.411 1.411 0 0 1 .78.885c.065.203.098.422.098.656 0 .234-.033.452-.098.653a1.486 1.486 0 0 1-.296.527 1.37 1.37 0 0 1-.484.35c-.19.085-.413.126-.668.126a1.65 1.65 0 0 1-.665-.125 1.367 1.367 0 0 1-.486-.351 1.487 1.487 0 0 1-.296-.527c-.066-.201-.1-.419-.1-.653s.034-.453.1-.656"/><g clip-path="url(#m)" transform="translate(-137.463 -44.788) scale(.35278)"><path d="M579.64 340.51a3.355 3.355 0 0 0-.504-1.074 2.51 2.51 0 0 0-.875-.75c-.355-.184-.77-.278-1.246-.278-.5 0-.926.098-1.277.297a2.506 2.506 0 0 0-.852.778c-.223.32-.383.683-.484 1.09-.098.406-.145.82-.145 1.238 0 .445.05.87.156 1.285.106.414.27.777.496 1.09.227.316.524.57.883.762.36.19.797.285 1.309.285.512 0 .941-.098 1.285-.297a2.38 2.38 0 0 0 .828-.785c.211-.325.36-.696.453-1.118.094-.418.141-.847.141-1.293 0-.418-.055-.828-.168-1.23m-5.332-3.203v1.222h.035a2.23 2.23 0 0 1 1.152-1.09 4.31 4.31 0 0 1 1.727-.34c.7 0 1.309.126 1.824.384.52.254.95.601 1.293 1.039s.602.941.778 1.508c.175.57.261 1.18.261 1.816 0 .64-.086 1.246-.254 1.816a4.322 4.322 0 0 1-.765 1.493 3.613 3.613 0 0 1-1.293 1.003c-.52.246-1.121.368-1.809.368a4.453 4.453 0 0 1-1.554-.297 3.239 3.239 0 0 1-.758-.426 2.428 2.428 0 0 1-.602-.672h-.035v4.64h-1.484v-12.464z"/></g><path d="M68.709 77.387h-.524V72.99h.524z"/><g clip-path="url(#n)" transform="translate(-137.463 -44.788) scale(.35278)"><path d="M592.51 339.96a2.503 2.503 0 0 0-.54-.813 2.632 2.632 0 0 0-.804-.542 2.552 2.552 0 0 0-1.02-.2c-.386 0-.73.067-1.038.2a2.388 2.388 0 0 0-.793.55 2.65 2.65 0 0 0-.528.813 3.177 3.177 0 0 0-.226.984h5.187a2.954 2.954 0 0 0-.238-.992m.36 5.793c-.676.512-1.524.77-2.548.77-.722 0-1.347-.118-1.878-.348a3.736 3.736 0 0 1-1.336-.977c-.36-.422-.633-.922-.813-1.504s-.281-1.214-.305-1.902c0-.687.106-1.316.317-1.887.207-.57.5-1.062.879-1.484a4.061 4.061 0 0 1 1.344-.977 4.087 4.087 0 0 1 1.703-.347c.804 0 1.468.164 2 .496.527.332.953.754 1.273 1.265.32.512.543 1.07.664 1.676.121.606.172 1.184.149 1.73h-6.758c-.012.395.035.77.14 1.126.106.355.274.668.508.941.23.274.528.492.89.656.36.165.786.243 1.274.243.63 0 1.145-.145 1.543-.434.403-.293.668-.734.797-1.328h1.465c-.195 1.012-.633 1.773-1.309 2.285"/></g></g></svg>