<?xml version="1.0" encoding="utf-8"?>
<!-- Generator: Adobe Illustrator 17.1.0, SVG Export Plug-In . SVG Version: 6.00 Build 0)  -->
<!DOCTYPE svg PUBLIC "-//W3C//DTD SVG 1.1//EN" "http://www.w3.org/Graphics/SVG/1.1/DTD/svg11.dtd">
<svg version="1.1" id="Layer_1" xmlns="http://www.w3.org/2000/svg" xmlns:xlink="http://www.w3.org/1999/xlink" x="0px" y="0px"
	 width="378px" height="191px" viewBox="0 127.9 378 191" enable-background="new 0 127.9 378 191" xml:space="preserve">
<g>
	<g>
		<rect x="190.4" y="132.8" fill="#1B5EAC" width="87.8" height="87.8"/>
		<path fill="#FFFFFF" d="M212.6,147.2v34.5c0,18.3,9.1,25.1,21.1,25.1c12.7,0,22.2-7.3,22.2-25.3v-34.3h-7.7V182
			c0,12.9-5.7,18.6-14.3,18.6c-7.8,0-13.7-5.6-13.7-18.6v-34.8L212.6,147.2L212.6,147.2z"/>
		<rect x="283.6" y="132.8" fill="#1B5EAC" width="87.8" height="87.8"/>
		<path fill="#FFFFFF" d="M312.6,206v-25.1c0-9.7-0.1-16.8-0.5-24.2l0.3-0.1c2.9,6.3,6.8,13,10.9,19.6l18.6,29.8h7.7v-58.6h-7.1V172
			c0,9.1,0.2,16.2,0.9,24l-0.4,0.1c-2.7-6.1-6.2-12.2-10.4-19.1l-18.7-29.7h-8.4v58.6h7.1V206z"/>
		<rect x="283.6" y="226" fill="#1B5EAC" width="87.8" height="87.8"/>
		<path fill="#FFFFFF" d="M339.9,257.9c0-7.8-5.5-11.6-13.8-11.6c-3.3,0-5.8,0.3-7.1,0.6v22.8c1.6,0.4,3.8,0.6,6.3,0.6
			C334.4,270.4,339.9,265.8,339.9,257.9 M347.5,257.1c0,5.3-1.6,9.5-4.6,12.5c-4,4.2-10.5,6.4-17.9,6.4c-2.3,0-4.4-0.1-6.1-0.5v23.6
			h-7.6v-57.9c3.7-0.7,8.4-1.2,14.5-1.2c7.5,0,13,1.7,16.4,4.9C345.6,247.6,347.5,251.9,347.5,257.1z"/>
		<rect x="190.3" y="226.1" fill="#1B5EAC" width="87.8" height="87.8"/>
		<path fill="#FFFFFF" d="M252.4,268.5c0.1-14-7.8-22.6-23.8-22.6c-3.9,0-6.9,0.3-8.9,0.8v46.4c1.9,0.3,4.7,0.3,7.7,0.3
			C243.6,293.5,252.4,284.4,252.4,268.5 M260.4,268.3c0,9.6-3,17.4-8.4,22.8c-5.6,5.5-14.6,8.4-26,8.4c-5.5,0-9.9-0.2-13.8-0.7
			v-57.7c4.7-0.7,10.2-1.2,16.2-1.2c10.9,0,18.6,2.4,23.8,7.2C257.3,251.9,260.4,258.8,260.4,268.3z"/>
	</g>
	<g>
		<rect x="4.4" y="132.8" fill="#1B5EAC" width="181.2" height="181.2"/>
		<path fill="#FFFFFF" d="M141.1,261.9c-4.1,1.1-8.6,1.5-12.6,2.9c6.8-5.9,6.5-14.9,11-21.9c1.5-2,2.7-4,4.3-5.9
			c-2.8,5.6-1.6,12.8-4.8,18.2c-1.2,2.1-3,4.2-4.9,5.9c0.6,0,1.2-0.6,1.7-0.9c5.2-5.2,12-6.6,17.6-10.8c2.2-1.8,4.3-4.1,5.3-6.7
			C157.7,251.3,149.1,259.3,141.1,261.9"/>
		<path fill="#FFFFFF" d="M159.8,227.2c-2.5,3.6-5.6,7-7.9,10.6c0.3-2.9,0.6-6.5-0.5-9.2c-2-5.9-3.7-11.9-4.2-18.4l0.1-2.5
			c1.5,6.6,8,11.2,7.6,18.6c0.1,1.8-0.4,3.3-0.7,4.9l0.1,0.1l0.3-0.3c1-3.6,1.4-7.5,2.9-10.9c2.1-4.9,4.8-9.9,3.7-15.8
			C164.3,211.3,163.3,220.6,159.8,227.2"/>
		<path fill="#FFFFFF" d="M155.8,189.6c4.3,5.8,5.2,15,2.1,21.7c-1.2,2.8-2,5.8-2.4,8.9c-0.2-0.5-0.3-1.3-0.5-1.9
			c-1.7-6.5-7.9-11.1-10.4-17.3c-0.8-2-1.5-4.1-1.9-6.3c2.7,5,9.4,7.6,11.2,13.1c0.7,1.4,0.7,3.1,1.2,4.6c0.1,0,0.2-0.1,0.2-0.2
			c-0.8-5.7-0.6-11.6,0.2-17.2c0-3-0.3-6-2-8.3C154.5,187.4,155,188.6,155.8,189.6"/>
		<path fill="#FFFFFF" d="M152.7,188.4c1.1,5.1-0.5,10,0.5,15.1l0,0c-2.8-5.4-8.6-8-12.7-12.3c-2.3-2.6-3.4-5.7-3.9-9.1
			c2.3,5.6,8.5,6.8,12.1,11.5c1.2,1.1,1.6,2.6,2.4,3.8l0.1-0.1c-2.1-4.4-2.8-9.3-4.2-14c-0.7-2-2.2-4-4.1-5.3
			C147.7,179.1,151.8,184,152.7,188.4"/>
		<path fill="#FFFFFF" d="M140.2,176.8c3.5,3.2,5.1,7.3,6.2,11.5l0.6,1.4c-5.1-3.7-9.8-8.7-13.1-13.9l-4-4.1
			C133.4,173.2,137.2,174.1,140.2,176.8"/>
		<path fill="#FFFFFF" d="M59,172.4c-3.6,3.1-6,7.1-8.6,10.7c-2.4,2.9-5.4,4.9-8.1,7.4c1.4-3,1.5-6.6,3.5-9.3
			C48.8,176.1,54.2,174.3,59,172.4"/>
		<path fill="#FFFFFF" d="M39.6,183.2c1.7-2.1,3.9-3.6,6.4-4.3c-4.8,3.3-4.5,9.2-6,14.1c-0.5,1.8-1.3,3.5-1.7,5.3l0.1,0.1
			c0.8-2.1,2.2-4.1,3.9-5.8c3.4-3.1,8.4-5.1,10.1-9.7c-0.1,6.4-5.5,11.5-10.6,15.1c-2.1,1.9-4.2,4-5.3,6.4c-0.1-1.6,0.2-3.3,0.1-5
			C36.1,193.8,35.6,187.4,39.6,183.2"/>
		<path fill="#FFFFFF" d="M29.9,202.5c-0.1-5.7,2.2-10.4,5.6-14.6c0.1,0,0.2-0.1,0.3-0.1c-3.7,5.6-0.6,12.6-0.8,19l-0.5,6.5
			c0.1,0,0.1,0.2,0.2,0.2c0.2-0.7,0.3-1.5,0.4-2.2c0.9-5.2,5.4-9,9.4-12.6c0.8-0.9,1.6-1.9,2-3c-0.3,2.6-1.1,5.2-2.2,7.7
			c-3.1,6-8.8,11-9.9,17.9C34,214.5,29.5,209.5,29.9,202.5"/>
		<path fill="#FFFFFF" d="M27.2,210.6c0.4-1.8,0.7-3.6,1.5-5.3c-1.5,7.5,3.6,13,5.3,19.5c0.7,2.4,0.9,5.1,1.9,7.4
			c0.1,0,0.2,0,0.2-0.1c-2.5-7,1.1-13.4,4.7-18.8c0.9-1.5,1.4-3.1,1.8-4.8c0.4,3.1-0.4,6.8-0.9,10c-0.9,4.2-2.2,8.1-3.3,12.1
			c-0.7,2.5-0.6,5.4-0.2,8l-0.4-0.3c-2.6-4.9-7.9-8.6-9.4-14C27.1,220.1,26.3,215.2,27.2,210.6"/>
		<path fill="#FFFFFF" d="M26.9,225.3c0.6,8,9.2,12.2,13.2,18.8c0.9,1.4,1.8,2.8,3,4c-0.2-0.8-1-1.6-1.3-2.4
			c-1.4-2.8-1.9-6.1-1.6-9.4c0.4-4.1,2.1-7.9,1.4-12.2c3.5,7.6,2.4,17,4.4,25.2c0.5,1.8,1.5,3.4,2.2,5.1c-7.2-4.9-17-9.6-20.2-18.5
			C26.8,232.7,26.6,228.9,26.9,225.3"/>
		<path fill="#FFFFFF" d="M31.2,243.7c4,9.1,14.1,9.8,20.8,15.4c1.2,1.1,2.5,2,3.9,2.7l0.1-0.1c-1.5-1.4-3.3-3-4.4-4.8
			c-3.9-5.5-2.6-13.2-5.5-19.1c2.7,3.2,5.1,6.5,6.7,10.2c2.4,5.9,3.3,12.7,8.9,17.1c-6-2-13.1-1.4-18.4-5.1
			C37.5,256.4,32.3,250.3,31.2,243.7"/>
		<path fill="#FFFFFF" d="M41.5,260.6c6.4,7.3,16.9,4.9,25.5,6.8c1.2,0.2,2.3,0.7,3.6,0.5c-1-0.7-2.4-0.6-3.5-1.2
			c-6.7-2.4-7.7-9.6-11.4-14.5c4.7,3.1,8.6,7.3,12.9,11.3c3.1,2.7,6.8,4,10.7,4.8c-0.9,0.3-2.2,0.2-3.2,0.5c-7,1.7-14.9,4.6-22.3,2
			C49,269.2,44,265.4,41.5,260.6"/>
		<path fill="#FFFFFF" d="M128.8,277.7c-7.2,2.7-14.8-0.1-20.5-4.4c-2.3-1.5-4.3-3.6-7.3-3.4c-1.1,0-2.1,0-3,0.3
			c5.5,2.6,10.6,6.1,15.3,10.6c-0.8,0.9-1.8,1.7-2.8,2.5c-4.5-4.9-9.5-9.5-15.1-12.2c-1.1,0.1-2.1,0.8-3.1,1.3
			c-4.5,2.9-9,6.6-12.4,11.1l-2.9-2.4c4.6-4.7,9.8-8.3,15.4-10.9c-5.5-1.7-9.1,2.9-13.3,5.2c-4.9,3.4-11.9,5-17.8,2.7
			c-3.2-1.2-6.2-3-8.5-5.8c4.6,3.2,11.5,3.5,16.8,1.4c7.1-3.1,14.4-7,22.9-5.1c1.3,0,2.6,1.4,3.9,0.2c6.3-1.6,13.5-0.5,19,2.4
			l5.6,2.2c5.2,1.9,12,1.4,16.4-1.8C135.2,274.4,132.1,276.5,128.8,277.7"/>
		<path fill="#FFFFFF" d="M136.6,270.2c-8.1,3.1-16.3-0.7-24.1-2L111,268l0,0c3.7-0.8,7.3-2,10.3-4.6c4.4-4.2,8.3-8.5,13.1-11.8
			c-3.6,4.6-4,11.2-9.9,14.2c-1.5,1-3.3,1.1-4.9,1.9c2.2,0,4.2-0.7,6.3-0.9c8-1.3,17.1,0,22.7-6.8
			C146.5,264.5,141.3,268.5,136.6,270.2"/>
		<path fill="#FFFFFF" d="M151.4,247.3c-3.2,2.1-6.5,4.1-9.6,6.4v-0.3c4.7-7.9,2.4-18.7,5.3-27.3l1.1-2.9c-0.6,5.4,1.7,10,1.6,15.4
			c-0.2,3.3-1.2,6.2-2.9,8.8h0.3c2.3-3,4.1-6.3,6.8-9.2c4.2-4.1,8.5-8.2,9-13.8C164.4,233.7,159.2,242,151.4,247.3"/>
		<path fill="#FFFFFF" d="M140.9,218c-0.5,11.3-4.7,21.1-12.1,29.5l-0.2,0.4c-1.5-1.7-3.5-3.8-5.4-5.3c1.1-0.7,2-2.1,2.8-3.1
			c4.6-6.3,7.3-13.4,7.7-21.4l-0.2-0.7l0.4,0.3h6.9l0.4-0.2L140.9,218z M96.6,262.2l-0.5,0.3c0.2-2.5,0.2-5.1,0-7.6
			c1.2,0.4,2.5,0,3.8,0l3.7-0.7c1.8,0.4,3.1,3.3,5.2,1.5c0.7-0.8,1.9-0.8,2.4-1.9c1.2-0.4,1.5-1.6,2.3-2.4c0.8-2.3,3.4-2.6,4.9-4.2
			c1.1-1,2.6-1.9,3.3-3.2l0.1,0.6l5.1,4.9C118.3,257.3,108.2,261.7,96.6,262.2z M96.5,246.8c0.9,0.4,2.4-0.4,2.9,0.6
			c-0.3,0.6-0.7,1.1-0.5,1.7c0.4,0.9,0.9,2.1,2,2.2c0.3,0.4,0.7,0.5,1.1,0.6c-1.9,0.3-4,0.2-5.8,0.8c0.2-2,0-4,0-6l-0.4-0.5
			C96.1,246.3,96.3,246.6,96.5,246.8z M94.7,234.5c-0.5,0.1-1,0-1.4-0.2c-0.2,0-0.1-0.3-0.2-0.4c0.7,0,1-0.8,1.8-0.7
			c0.4-0.4,0.5-1,1.1-1.3c-0.2-0.6,0.6-0.2,0.7-0.6c0.2-0.2,0.5-0.4,0.8-0.2c0.5,0.7,1.5,0.4,2,1.2c0.2,0.1,0.3-0.2,0.3-0.3v-0.3
			c0.8-0.1,1.2,1,2,0.3c0.2-0.2,0.1-0.5,0-0.7c-0.1,0-0.2-0.1-0.2-0.2c0.6-0.3,0.9,0.8,1.6,0.5c0.6-0.5,0.9-1,1.7-1l0.2,0.2
			c0.1,1.4-1.1,2.3-2.2,3c-0.7,0.3-2,0.2-1.9,1.3c-0.8,0.7-1.5-0.4-2.5-0.1c-0.5-0.2,0-0.9-0.7-1C96.7,234.3,95.5,233.4,94.7,234.5z
			 M88.9,261.9c-9.7-1.3-18.2-5.5-25.7-12l5-5l0.1-0.3c6.9,6.6,15.2,10,24.6,10.6l0.7-0.2l-0.2,0.4v6.5l0.4,0.6
			C92.2,262,90.4,262.2,88.9,261.9z M54.9,239c-3.5-6.5-5.5-13.5-5.9-21.2h6.7l0.7-0.2c-0.1,0.4-0.1,0.8-0.1,1.4v-0.1
			c-0.2,0.1,0.1,0.2,0.1,0.4c0.1,2.6,0.6,5,1.2,7.3l0.3,0.5c-0.5-0.5-0.7-1-1.1-1.5c-0.6,0.1-1.2,0.2-1.6,0.6
			c0.3,0.7-0.4,0.5-0.7,0.7c-0.1-0.2-0.3-0.4-0.5-0.5c-0.5,0-1,0.1-1.3,0.6c0.1,0.4-0.3,0.5-0.5,0.8c-0.1,1.1-0.5,2.5,0.3,3.4
			c0,0.8,0.4,1.5,1,2c0.2,0,0.4-0.1,0.5-0.2c0.7,0.5,1,1.7,2,1.4c0.3-0.1,0.2-0.4,0.3-0.7c0.5,0.5,0.7,1.5,1.7,1.4
			c0.2,0.2,0.4,0.7,0.8,0.7c1-0.3,0.7,1.2,1.4,1.6c0.6,0.4,0.9,1.2,1.7,0.8l0.3-0.4c0.3,0.2,0,0.7,0.3,0.9c0.4,0.8,1.2,1.3,2,1.5
			c0.7,0.8,1.4,1.7,2.2,2.3l-0.6,0.2l-4.8,5C59.1,245.1,56.6,242.2,54.9,239z M49.3,210.8c1.2-10,5.5-18.7,12.4-26.4l0.2,0.7
			c1.6,1.6,3.3,3.3,4.9,4.8c-1.4,0.9-2.1,2.5-3.2,3.7c-4.3,6.1-6.8,13-7.2,20.7l0.2,0.9c-2.4-0.2-5-0.2-7.5,0
			C49.2,213.7,49,212.2,49.3,210.8z M67.3,179.5c7.7-5.5,16.3-8.8,26-9.2l-0.3,0.6l0.1,5.8l0.2,0.6c-9.4,0.4-17.6,4-24.7,10.4
			l-0.1,0.3c-1.6-1.7-3.4-3.7-5.3-5.1H63C64.5,182,65.8,180.5,67.3,179.5z M93.4,196.6c-1.3-0.3-2.4,0.3-3.6,0.4
			c-2.7,0.7-5.1,2.2-7.4,3.8c-0.1,0.2-0.2,0.4-0.4,0.5c-1.7-1.5-3.3-3.5-5.1-4.8c4.7-3.8,10-6.4,16.1-6.8l0.4-0.2
			C93.1,191.8,93.1,194.3,93.4,196.6z M91.5,204.4c-0.1-0.3,0.3-0.7-0.1-0.9c-1.1,0.5-0.7,1.7-1.4,2.5c-0.1,0.6-0.9,0.3-1.3,0.7
			c-0.3-0.5-0.9-0.4-1.3-0.2c-0.6,0-0.7-1.2-1.3-0.6c-0.2,0.2-0.1,0.6-0.5,0.5c-0.1-0.2-0.3-0.2-0.4-0.3c0-0.4,0.6-0.3,0.4-0.7
			c-0.4-0.8-1.4-0.7-2-1.2H83c2.8-3,6.4-4.3,10.3-4.9c0,1.7-0.2,3.7,0.4,5.3C93.1,203.8,92.2,204.7,91.5,204.4z M84.8,224
			c0.4-0.4,0.8-1,1-1.6l0.8,0.4C85.8,222.9,85.4,223.7,84.8,224L84.8,224z M92.5,231.3c-0.3,0.6-0.1,1.4-0.2,2
			c-3.2-0.6-6.1-1.9-8.7-4c1.5-1.6,3.4-3.1,4.5-4.8c0.1,0.8,1.1,1.1,1.7,1.5c1.3,0.6,2.8,1.5,4.3,0.9c-0.1,0.1-0.2,0.2-0.3,0.3
			c0.4,0.4-0.3,0.8,0.2,1.2c0.1,0.3-0.3,0.3-0.3,0.5c0.2,0.4-0.1,1.2,0.6,1.4c0.2,0.2,0,0.6-0.3,0.6
			C93.4,230.8,92.8,230.8,92.5,231.3z M77.6,205.3c-0.7,0.4-1.2,1.1-1.6,1.7c-0.6,0.4-1.3,0.3-1.8,1c0,0.3,0.3,0.6,0,0.8
			c-0.6,0.5-1.7-0.1-2,0.9c-0.1,0.9-1.2,1.4-1.1,2.4c-0.6,0.4-0.5,1.1-0.4,1.7c0.3,0.4-0.1,1.1,0.4,1.4c-0.9-0.1-2.2-0.3-3,0.1
			c0.5-1.1,0.3-2.4,0.6-3.6c0.9-5,3.2-9.4,6.5-13.4c1.7,1.6,3.5,3.6,5.3,5C79.1,203.3,79.1,205.3,77.6,205.3z M74.3,233.8l-0.2-1.5
			c-1.4-1.2-0.9-3.4-1.2-4.9c-1-0.8-0.2-2-0.9-2.9c0-1.4-2.2-1.9-1.5-3.4c-0.3-0.4-0.6-0.9-0.3-1.4c0.4-0.5,1.4,0,1.7-0.7l0.2-1.3
			c0.5-0.3,1.2,0.4,1.5-0.3c0.5-1.2-1.8-2.7,0.2-3.3c0.7-0.1,1.5-0.2,1.8,0.6c0.1,0.9,0.4,1.9,0,2.8c0.6,0.2,0.1,0.8,0.1,1.2
			c-0.4,0.2-0.7,0.6-1.2,0.4c-0.2-0.3-0.5-0.9-1-0.8c-0.4,0.5,0.1,1,0.1,1.6c-0.1,0.3,0,0.7-0.2,1c-0.2-0.1-0.3-0.2-0.6-0.2
			c-0.4,0.2-0.1,0.7,0,0.9c0.4,0.3,0.7,0.7,1.3,0.7l0.2-0.3c-0.1-0.8,0.3-1.4,0.3-2.1l0.7,0.4c0.6,3,2,5.7,3.7,8.3l0.9,0.9
			c-2.2,1.9-4.3,4.2-6.2,6.3l0,0c0-0.1-0.1-0.5-0.4-0.3C73.1,234.6,74.6,234.9,74.3,233.8z M89.7,242.4l1.2,0.5
			c-4.2-1-8.7-2.5-12.3-5.5c-0.6-0.4-1-1.2-1.8-1.2c1.7-1.4,3.4-3.2,4.8-4.9c0.6,1.2,2,1.8,3,2.6c1.8,0.8,3.7,2.4,5.9,2
			c-0.7,0.2-1.3,0.6-1.8,1.2c-0.3,0.7-0.2,1.6-1.1,1.9C87.6,240.2,88.8,241.4,89.7,242.4z M82.5,223.5c0,0.2,0.3,0.5,0.6,0.3
			c0.3-0.4-0.6-1,0-1.2c0.4,0.4,0.2,1.2,0.4,1.7c0.2,0.3,0.3,0.6,0.2,0.9c-0.7,0.8-1.6,1.5-2,2.4c-0.4-1.1-1.4-2-1.8-3.1
			c-0.7-1.3-1.1-2.7-1.7-3.9c0.6,0.7,2.1-0.1,2.1,1.3c0.1,0.1,0.2,0,0.4,0c0.2-0.2,0.2-0.2,0.5-0.1c0.1,0.2,0.7,0.4,0.2,0.6
			C81.5,222.9,82,223.4,82.5,223.5z M93.3,187.1c-1.3-0.3-2.5,0.2-3.8,0.3c-5.4,1.1-10.4,3.4-14.5,7.3l-0.2-0.5
			c-1.6-1.5-3.1-3.4-4.9-4.5c1.5-0.9,2.9-2.3,4.4-3.3c5.6-3.8,11.9-5.9,18.9-6.3C93,182.4,93.2,184.8,93.3,187.1z M65.9,215.2
			l-0.6-0.2l-6.6,0.1c0.6-7.4,2.6-14.2,6.9-20l2.6-3.3v-0.5c1.5,1.8,3.3,3.5,5.1,5.1c-4.8,5.1-7.2,11.3-7.7,18.1
			C65.7,214.8,65.7,215.1,65.9,215.2z M61,226.4c-0.7,0.1-0.5,0.8-0.7,1.2c0.1-1.7-0.7-3.3-0.9-5l-0.5-4.4l-0.3-0.4
			c2.1,0.3,4.5,0.1,6.7,0.2l0.5-0.2c-0.2,1.1-0.2,2.6,0.5,3.5c-0.3-0.3-0.7-1.1-1.3-1.1c-1.2,0.1-1.3,1.7-2.6,1.7
			c-1,0.8-1.2,2-1.4,3.2C61.5,225.4,60.7,225.9,61,226.4z M68.3,218.1l-0.3-0.6c0.7,0.5,1.5,0.4,2.3,0.2c-1.2,0.4-0.7,1.8-1.2,2.7
			c-0.1,0.4,0.6,0.6,0.5,1c-0.6,0.3-0.7,0.9-0.9,1.4C69,221.2,68.4,219.7,68.3,218.1z M93.6,252.9l-0.7-0.5c-9-0.5-16.7-4.2-23.4-10
			c1.1-0.1,1.5,1.3,2.7,1c1.3-0.1,2.3-1.2,3.7-1c0.7,0,1.5,0,1.9-0.7c0.2-0.7-0.6-1.1-0.7-1.7c4.6,3.4,9.7,5.6,15.6,5.8l0.6-0.2v6.4
			L93.6,252.9z M94.7,208.1l0.4,0.2c-0.5,0-1.1-0.3-1.5,0.1c-0.3,0.2-0.1,0.6,0,0.9c0.9,0.3,1.1,1.8,2.2,1.2
			c0.5,0.1,1.1,0.2,1.3,0.7c0.7,0.3,0.8,1.5,1.7,1.2c0,0.5-0.2,1.3,0.4,1.6c-0.1,0.4-0.7,0.6-0.7,1.1c-0.1,0.1-0.2,0.4-0.1,0.6
			c0.9,0.1,0.8,1.1,1.3,1.7c-0.2,0.7,0,1.4,0.7,1.8c-0.1,0.8-0.5,1.5-0.8,2.2c-0.9,0.5-2.5-0.7-2.8,1c-0.5,0.6-0.1,1.9-1.1,1.9
			c-2,0.1-3.8-0.3-5.3-1.4c1-0.5,2.7,0.2,3-1.3c0.3-0.2,0.4-0.6,0.2-0.9c0.5-0.5,0.6-1.1,0.9-1.6c-0.4-0.4-0.2-0.6-0.1-1
			c-1-1-2.3-0.5-3.6-0.5c-0.8,0.4,0,1.3-0.5,1.8c-1,0.1-1,1.1-1.7,1.6c-0.4-0.2-0.7-0.7-0.7-1.1H88c-0.1,0.2,0.1,0.4,0.2,0.4
			c0.9,0.1,0.6-0.9,0.9-1.4c0.1-0.6,1.5-1.4,0.4-1.8c-0.1-0.2,0.1-0.6-0.2-0.7c-0.3,0.1-0.9,0.1-0.9,0.7c0.2,0.4,0,0.9-0.4,1.2h-0.2
			c0.1-0.3-0.1-0.5-0.3-0.6c-0.6,0-1,0.4-1.6,0.3c-0.8,0.2-1.6,0.3-2.4,0.3c-0.1-0.5,0.6-0.3,0.8-0.7c-0.1-0.7,0.4-1.2,0.7-1.7
			c0.2-0.2,0.6-0.1,0.8,0c0.2,0.2,0.4,0.4,0.7,0.3l0.2-0.4c0.7,0.4,0.3,2.5,1.7,1.6c0.2-0.9,0-2,0.4-2.8c-0.3-0.8,0.5-1.1,0.7-1.6
			c0.7,0.1,0.7-0.8,1-1.2c1.1-0.3,2.3-0.6,3.1-1.8c-0.3-0.6-0.1-1.5-0.6-2C93.5,207.9,94.3,207.7,94.7,208.1z M98.8,180.3
			c4.2,0.5,8,1.7,11.7,3.4c0.6,0.8,1.6,1.3,1.8,2.3c-0.6,1.5,2,1.4,0.8,2.9c-0.1,0.5,0.3,0.7,0.5,1.1c0.1,0.4-0.1,1,0.4,1.3
			c0.9,0.2,1.2-1,2.1-0.7c1.1,0.8,1.4,2.2,1.4,3.4c0.1,0.8,0.8,1.3,1.5,1.6c1.4-0.4,0.8,1.2,1.7,1.6c1.1,0.1,1.7,1.6,2.9,1.4
			c1.1,0.8,1.7,2,2.7,2.9c0,0.2,0.1,0.4,0.3,0.5c0.6,0.1,0.9-0.3,1.4-0.3c1.9,3.8,2.8,8,3.1,12.5l0.2,0.5c-2.3,0-4.7,0-7.1,0.2
			c-0.1-1.4,0-2.8-0.7-3.9c0.4-0.7,0.5-1.7,0.4-2.5c-0.1-0.4-0.5,0-0.6,0c-0.8,0.7-0.9,1.8-1.3,2.7c-0.7,0.9-0.8,2.4-0.4,3.4
			l0.3,0.3h-2.7c0.7-0.4-0.6-1.2,0.1-1.9l1.2-0.2c0.4-0.9,1.4-1.5,1.3-2.6c0.5-0.7,1-1.5,0.6-2.4c-0.6-1.3,1-2.7-0.2-3.9
			c0.1-0.4-0.1-0.9-0.6-0.9c-0.4-0.1-0.8,0-0.8-0.5c0.2-0.3,0.8-0.7,0.6-1.2c-0.3-0.4-0.7,0-1.1-0.1c-0.1-0.6,1-1.2,0-1.7
			c-0.7-0.1-1,0.7-1.7,0.4c-0.3-0.2-0.5-0.7-0.2-1l-1.4-1.8c-0.1-0.2-0.6,0.1-0.6-0.2c0.1-1.4-1.6-2.2-1.7-3.6
			c-0.5-0.5-0.1-1.4-0.8-1.8c-0.4-0.3-0.8-0.6-1.4-0.4c-0.6-0.9-1.3-1.7-2.1-2.5c-0.2-0.1-0.4,0.1-0.5,0.2c0.1,0.7,0.9,1.1,0.9,1.8
			c-0.1,0-0.2,0-0.3,0.1c0.1,0.7,0.7,1.3,1.1,1.7c-3.8-2.9-8.3-4.4-13-5.2c-0.9,0-1.9-0.4-2.8-0.1c0.2-2.1,0.1-4.5,0.1-6.7l-0.2-0.5
			C96.8,180.4,97.8,180.1,98.8,180.3z M100.7,170.6c9.7,1.3,18.3,5.2,25.6,12.1l-0.8,0.3c-1.3,1.4-2.9,2.6-3.6,4.2
			c-0.1-0.5-0.8-0.8-1-1.2c-0.1-1.3-1.4-2.6-2.6-3.3c-0.9-0.2-1.2-1.6-2.3-1.2c-1-0.8-2.2-0.2-3.1,0.2v0.1
			c-4.6-2.6-9.7-4.2-15.2-4.6c-0.3,0-0.4,0.2-0.7,0.2c0.3-0.2,0.1-0.8,0.1-1.1c-0.1-0.2-0.4-0.5-0.8-0.3c-0.1,0.2-0.2,0.4-0.2,0.6
			c0.1-2.1,0.2-4.8-0.1-6.7C97.4,170.5,99.1,170.3,100.7,170.6z M105.2,232.9c2.1,0.2,4.1,0.7,6,1.4c0.5,0,1,0,1.3-0.4
			c-0.1-0.8,0.8-1.2,0.7-2c0.4-0.7,0.1-1.6,0.7-2.2c0.1-0.8,0-1.8-0.6-2.4c-0.5-0.3-1,0.1-1.5,0.2c-0.6,0.4-0.4,1.7-1.4,1.4
			c-0.2,0.3-0.7,0.3-1,0.2c-0.1-0.1-0.2-0.1-0.2-0.3c0.7-0.4,2-0.1,2.1-1.3c0.5-0.5,1.4-0.3,1.9-0.8c0.4-0.6,0.5-1.1,1-1.6
			c0-0.2,0.1-0.5,0.1-0.7c0.1,0.3,0.1,0.8,0.6,1c0.6,0.2,0.8-0.3,1-0.7c0-0.2,0.1-0.5,0.3-0.3c0.6,0.5,1.4,0.1,2.1,0.1
			c0.6-0.2,1.3-0.3,1.9-0.3c-0.6,2.7-1.9,5.1-3.5,7.5c-0.6,0.7-1.1,1.5-1.8,2.3c-0.2-0.6-0.2-1.3-0.7-1.8l-0.3,0.1
			c-0.4,0.8-1.2,1.4-1.1,2.3c-0.6,0.9-2,0.1-2.9,0.6c-1,0.3-1.6-0.7-2.4-0.9c-0.9-0.4-2-0.4-2.8-0.9
			C104.9,233.1,105,232.9,105.2,232.9z M111.8,197.1c-1.3,1.4-2.9,2.8-4,4.3l-0.2-0.5c-3.2-2.6-6.8-3.9-10.8-4.4l-0.6,0.1v-6.5
			l-0.2-0.5c2.7,0.4,5.3,0.8,7.8,1.6c3.1,1.1,6,2.8,8.7,5l0.6,0.2L111.8,197.1z M121.9,217.6c-0.4,1.3-0.4,2.8-0.7,4.1
			c-0.1,0.2-0.1,0.5-0.2,0.7c-0.4-0.8-0.8-1.9-1.7-2.4c-0.8-0.4-0.3-1.5-1-2l-0.7-0.7C118.7,217.8,120.4,217.7,121.9,217.6z
			 M117.6,204.8c0.8,0.2,1.3,1.1,2.1,1.3c0.7,1.1,1,2.4,1.4,3.6c-0.7,0.7-0.7,2.3-2.1,2.1c-0.3-0.8,0.6-1.2,0.4-2
			c0.2-0.2,0.6-0.3,0.7-0.7c-0.1-0.7-1-0.6-1.1-1.3c-0.3-0.4-0.8-0.4-1.2-0.5c-0.9-0.4-1.8,1.9-2,0c0.3-0.2,0.5-0.6,0.2-0.9
			c-0.8-0.4-0.9-1.5-1.7-2c-1.2,0-2.3-0.5-3.4-0.2c-0.7-0.2-1.6-0.7-2.2,0.1c0,0.6-0.4,1.1-0.5,1.7c-0.3-0.1-0.5-0.4-0.7-0.7
			c2.1-2.4,4.6-4.8,6.8-7.1l0.1-0.3c1.1,1.4,2.4,2.8,3.2,4.3C117.9,203.2,116.1,204.2,117.6,204.8z M104,227.9
			c0,0.9-1.3,0.8-1.9,1.4c-0.3-0.1-0.1-0.5,0-0.7C102.7,228.3,103.1,227.8,104,227.9z M101.9,207.9c-0.4,0.1-0.8,0.4-1.2,0.2
			c-0.4-0.4-0.9-1-1.6-1.1c-0.5,0.1-0.8,0.7-1.3,0.4c0.9-0.9,2.4-1.1,3.1-2.4c0.2-0.6,0.4-1.3,0.3-1.9c-0.2-0.3-0.6-0.6-0.9-0.3
			c-0.5,0.8-1.6,1-2.1,1.8l-1.7-0.6c-0.3-1.6,0.1-3.6-0.3-5c0.9,0.3,1.9,0.4,2.9,0.6c2.5,0.6,4.7,1.8,6.9,3.1
			c-0.5,0.2-1,0.8-1.4,1.2c0,0.4,0.5,0.3,0.6,0.6l0.5-0.2C104.7,206.2,102.2,205.9,101.9,207.9z M115.4,245.4
			c-1.3-1.2,0.8-2.1,1.2-3.2c-0.2-1.1-1.5-1.8-2.4-2.1c-0.5-0.3-0.3-0.8-0.3-1.2c0.4-0.4,0.9-0.8,1.1-1.4l0.2,0.5l3,3.1
			c0,0.7,0.1,1.3,0.8,1.6c0.3,0.1,0.7-0.1,1,0h-0.2c-1.3,1.4-2.8,2.5-4.3,3.6l-0.3,0.5C114.9,246.2,115.8,245.9,115.4,245.4z
			 M121.1,238.4c-0.6-0.6-0.6-1.7-1.7-1.7c-0.4,0-0.5,0.3-0.5,0.6c0,0.2,0.1,0.4-0.1,0.5l-2.2-1.9c1-0.5,1.8-1.9,2.6-2.9
			c2-2.8,3.2-6,4.2-9.2c0.3,0.3,0.8,0.3,1.1,0.1c0.3-0.3,0.4-0.8,0.2-1.1l-0.7-1c0.1-1.5,0.5-2.9,0.3-4.3l0.5,0.2
			c2.2,0,4.5,0.1,6.7-0.1l-0.3,0.4c-0.6,8.7-3.6,16.6-9.7,23C121.8,240.1,121,239.3,121.1,238.4z M140.8,212.3
			c0.1,0.8-0.1,1.8,0.4,2.5l-7,0.1c-0.2,0.1-0.4,0.2-0.6,0.2l0.2-0.3c-0.1-5.5-1.6-10.4-3.7-15c-0.1-2.1-2.1-3.5-2.9-5.3
			c-1.5-1.1-2-2.9-3.8-3.9c-0.3-0.4-0.5-1-1-1.1l0.8-0.2c1.7-1.7,3.5-3.4,4.8-5.2C135.3,192.3,139.9,201.5,140.8,212.3z
			 M138.5,195.2c-7.9-16.9-25.3-27.6-43.5-27.6c-8,0.1-15.3,1.9-22,5.2c-11.9,5.7-21.6,18-24.9,30.2c-5.3,20.6,1.9,41.4,19.5,53.5
			c12.7,9.1,32.9,10.8,47.2,3.9c12.7-5.3,23.5-18.4,26.8-31.3C144.9,218.3,143.5,204.9,138.5,195.2z"/>
		<path fill="#FFFFFF" d="M116.4,180c0,0.3,0,0.5,0.2,0.7c1,0.4,1.1,1.8,2.4,1.5c0.4-0.4-0.2-0.9-0.1-1.5c-0.2-0.5-0.6-0.7-1.1-0.9
			C117.2,180.4,116.8,179.5,116.4,180"/>
		<path fill="#FFFFFF" d="M97.1,175.9c1.3,1.6,3.5,0.7,5.1,0.4c1.2,0.5,2.3-0.1,3.1-0.8v-0.2c-0.8-1.2-2.4-1.3-3.8-1.4l-3.5,1.5
			c-0.3-0.1-0.8-0.3-1,0.1C96.9,175.7,97,175.8,97.1,175.9"/>
	</g>
</g>
</svg>
